<mxfile host="app.diagrams.net" modified="2024-01-19T11:49:00.084Z" agent="Mozilla/5.0 (X11; Ubuntu; Linux x86_64; rv:121.0) Gecko/20100101 Firefox/121.0" etag="2QB46dIiWHRDWV_sWPjl" version="22.1.17" type="device">
  <diagram name="Page-1" id="5a_1NtJ2Kt03R1CC2rKa">
    <mxGraphModel dx="769" dy="1092" grid="1" gridSize="10" guides="1" tooltips="1" connect="1" arrows="1" fold="1" page="1" pageScale="1" pageWidth="1169" pageHeight="827" math="0" shadow="0">
      <root>
        <mxCell id="0" />
        <mxCell id="1" parent="0" />
        <mxCell id="2veusgKPtv5v1HkmfJhu-52" style="edgeStyle=orthogonalEdgeStyle;rounded=0;orthogonalLoop=1;jettySize=auto;html=1;endArrow=none;endFill=0;dashed=1;dashPattern=8 8;strokeColor=#6C8EBF;" edge="1" parent="1" source="2veusgKPtv5v1HkmfJhu-49" target="2veusgKPtv5v1HkmfJhu-1">
          <mxGeometry relative="1" as="geometry" />
        </mxCell>
        <mxCell id="2veusgKPtv5v1HkmfJhu-53" value="&lt;font color=&quot;#6c8ebf&quot;&gt;10.20.31.200/24&lt;/font&gt;" style="edgeLabel;html=1;align=center;verticalAlign=middle;resizable=0;points=[];" vertex="1" connectable="0" parent="2veusgKPtv5v1HkmfJhu-52">
          <mxGeometry x="-0.4694" relative="1" as="geometry">
            <mxPoint y="-3" as="offset" />
          </mxGeometry>
        </mxCell>
        <mxCell id="2veusgKPtv5v1HkmfJhu-49" value="&lt;div style=&quot;font-size: 20px;&quot;&gt;&lt;font color=&quot;#4d4d4d&quot; face=&quot;Courier New&quot; style=&quot;font-size: 20px;&quot;&gt;EKS Anywhere Cluster&lt;/font&gt;&lt;/div&gt;&lt;div style=&quot;font-size: 20px;&quot;&gt;&lt;font color=&quot;#4d4d4d&quot; style=&quot;font-size: 20px;&quot;&gt;&lt;br&gt;&lt;/font&gt;&lt;/div&gt;&lt;div style=&quot;font-size: 20px;&quot;&gt;&lt;font color=&quot;#4d4d4d&quot; style=&quot;font-size: 20px;&quot;&gt;&lt;br&gt;&lt;/font&gt;&lt;/div&gt;&lt;div style=&quot;font-size: 20px;&quot;&gt;&lt;font color=&quot;#4d4d4d&quot; style=&quot;font-size: 20px;&quot;&gt;&lt;br&gt;&lt;/font&gt;&lt;/div&gt;&lt;div style=&quot;font-size: 20px;&quot;&gt;&lt;font color=&quot;#4d4d4d&quot; style=&quot;font-size: 20px;&quot;&gt;&lt;br&gt;&lt;/font&gt;&lt;/div&gt;&lt;div style=&quot;font-size: 20px;&quot;&gt;&lt;font color=&quot;#4d4d4d&quot; style=&quot;font-size: 20px;&quot;&gt;&lt;br&gt;&lt;/font&gt;&lt;/div&gt;" style="rounded=1;whiteSpace=wrap;html=1;fillColor=#f5f5f5;strokeColor=#666666;fontColor=#333333;arcSize=18;" vertex="1" parent="1">
          <mxGeometry x="322.5" y="40" width="525" height="220" as="geometry" />
        </mxCell>
        <mxCell id="2veusgKPtv5v1HkmfJhu-4" style="edgeStyle=orthogonalEdgeStyle;rounded=0;orthogonalLoop=1;jettySize=auto;html=1;endArrow=none;endFill=0;dashed=1;dashPattern=8 8;strokeWidth=2;strokeColor=default;" edge="1" parent="1" source="2veusgKPtv5v1HkmfJhu-19" target="2veusgKPtv5v1HkmfJhu-3">
          <mxGeometry relative="1" as="geometry" />
        </mxCell>
        <mxCell id="2veusgKPtv5v1HkmfJhu-39" value="10.20.30.10/24" style="edgeLabel;html=1;align=center;verticalAlign=middle;resizable=0;points=[];" vertex="1" connectable="0" parent="2veusgKPtv5v1HkmfJhu-4">
          <mxGeometry x="0.7494" y="-1" relative="1" as="geometry">
            <mxPoint x="1" y="-9" as="offset" />
          </mxGeometry>
        </mxCell>
        <mxCell id="2veusgKPtv5v1HkmfJhu-1" value="vSphere" style="shadow=0;dashed=0;html=1;strokeColor=none;fillColor=#4495D1;labelPosition=left;verticalLabelPosition=middle;verticalAlign=middle;align=right;outlineConnect=0;shape=mxgraph.veeam.vsphere_server;" vertex="1" parent="1">
          <mxGeometry x="445" y="309" width="280" height="210" as="geometry" />
        </mxCell>
        <mxCell id="2veusgKPtv5v1HkmfJhu-2" value="OPNsense" style="image;html=1;image=img/lib/clip_art/networking/Router_Icon_128x128.png;labelPosition=center;verticalLabelPosition=top;align=center;verticalAlign=bottom;" vertex="1" parent="1">
          <mxGeometry x="950" y="356" width="150" height="116" as="geometry" />
        </mxCell>
        <mxCell id="2veusgKPtv5v1HkmfJhu-3" value="TrueNAS" style="image;points=[];aspect=fixed;html=1;align=center;shadow=0;dashed=0;image=img/lib/allied_telesis/storage/Datacenter_Server_Rack_Storage_Unit_Small.svg;" vertex="1" parent="1">
          <mxGeometry x="487" y="630" width="195.8" height="170" as="geometry" />
        </mxCell>
        <mxCell id="2veusgKPtv5v1HkmfJhu-5" style="edgeStyle=orthogonalEdgeStyle;rounded=0;orthogonalLoop=1;jettySize=auto;html=1;endArrow=none;endFill=0;dashed=1;dashPattern=8 8;fillColor=#dae8fc;strokeColor=#6C8EBF;" edge="1" parent="1" source="2veusgKPtv5v1HkmfJhu-1" target="2veusgKPtv5v1HkmfJhu-2">
          <mxGeometry relative="1" as="geometry">
            <mxPoint x="780" y="620" as="sourcePoint" />
            <mxPoint x="595" y="640" as="targetPoint" />
            <Array as="points">
              <mxPoint x="840" y="380" />
              <mxPoint x="840" y="380" />
            </Array>
          </mxGeometry>
        </mxCell>
        <mxCell id="2veusgKPtv5v1HkmfJhu-41" value="&lt;font color=&quot;#6c8ebf&quot;&gt;10.20.31.1/24&lt;/font&gt;" style="edgeLabel;html=1;align=center;verticalAlign=middle;resizable=0;points=[];" vertex="1" connectable="0" parent="2veusgKPtv5v1HkmfJhu-5">
          <mxGeometry x="0.8242" relative="1" as="geometry">
            <mxPoint y="-10" as="offset" />
          </mxGeometry>
        </mxCell>
        <mxCell id="2veusgKPtv5v1HkmfJhu-6" style="edgeStyle=orthogonalEdgeStyle;rounded=0;orthogonalLoop=1;jettySize=auto;html=1;endArrow=none;endFill=0;dashed=1;dashPattern=8 8;fillColor=#e1d5e7;strokeColor=#9673a6;" edge="1" parent="1" source="2veusgKPtv5v1HkmfJhu-1" target="2veusgKPtv5v1HkmfJhu-2">
          <mxGeometry relative="1" as="geometry">
            <mxPoint x="740" y="594" as="sourcePoint" />
            <mxPoint x="975" y="570" as="targetPoint" />
            <Array as="points">
              <mxPoint x="1010" y="490" />
            </Array>
          </mxGeometry>
        </mxCell>
        <mxCell id="2veusgKPtv5v1HkmfJhu-37" value="10.20.1.112/24" style="edgeLabel;html=1;align=center;verticalAlign=middle;resizable=0;points=[];fontColor=#9673A6;" vertex="1" connectable="0" parent="2veusgKPtv5v1HkmfJhu-6">
          <mxGeometry x="-0.7223" y="1" relative="1" as="geometry">
            <mxPoint x="13" y="11" as="offset" />
          </mxGeometry>
        </mxCell>
        <mxCell id="2veusgKPtv5v1HkmfJhu-38" value="&lt;font color=&quot;#9673a6&quot;&gt;10.20.1.1/24&lt;/font&gt;" style="edgeLabel;html=1;align=center;verticalAlign=middle;resizable=0;points=[];" vertex="1" connectable="0" parent="2veusgKPtv5v1HkmfJhu-6">
          <mxGeometry x="0.9326" y="-1" relative="1" as="geometry">
            <mxPoint x="15" y="-14" as="offset" />
          </mxGeometry>
        </mxCell>
        <mxCell id="2veusgKPtv5v1HkmfJhu-7" style="edgeStyle=orthogonalEdgeStyle;rounded=0;orthogonalLoop=1;jettySize=auto;html=1;endArrow=none;endFill=0;dashed=1;dashPattern=8 8;fillColor=#e1d5e7;strokeColor=#9673A6;" edge="1" parent="1" source="2veusgKPtv5v1HkmfJhu-3" target="2veusgKPtv5v1HkmfJhu-2">
          <mxGeometry relative="1" as="geometry">
            <mxPoint x="735" y="440" as="sourcePoint" />
            <mxPoint x="960" y="440" as="targetPoint" />
            <Array as="points">
              <mxPoint x="1025" y="715" />
            </Array>
          </mxGeometry>
        </mxCell>
        <mxCell id="2veusgKPtv5v1HkmfJhu-35" value="10.20.1.113/24" style="edgeLabel;html=1;align=center;verticalAlign=middle;resizable=0;points=[];fontColor=#9673A6;" vertex="1" connectable="0" parent="2veusgKPtv5v1HkmfJhu-7">
          <mxGeometry x="-0.8751" y="-1" relative="1" as="geometry">
            <mxPoint x="11" y="14" as="offset" />
          </mxGeometry>
        </mxCell>
        <mxCell id="2veusgKPtv5v1HkmfJhu-18" style="edgeStyle=orthogonalEdgeStyle;rounded=0;orthogonalLoop=1;jettySize=auto;html=1;endArrow=none;endFill=0;" edge="1" parent="1" source="2veusgKPtv5v1HkmfJhu-15" target="2veusgKPtv5v1HkmfJhu-3">
          <mxGeometry relative="1" as="geometry">
            <Array as="points">
              <mxPoint x="455" y="710" />
            </Array>
          </mxGeometry>
        </mxCell>
        <mxCell id="2veusgKPtv5v1HkmfJhu-15" value="" style="sketch=0;pointerEvents=1;shadow=0;dashed=0;html=1;strokeColor=none;fillColor=#505050;labelPosition=center;verticalLabelPosition=bottom;verticalAlign=top;outlineConnect=0;align=center;shape=mxgraph.office.devices.hard_disk;" vertex="1" parent="1">
          <mxGeometry x="440" y="730" width="30" height="40" as="geometry" />
        </mxCell>
        <mxCell id="2veusgKPtv5v1HkmfJhu-16" value="" style="sketch=0;pointerEvents=1;shadow=0;dashed=0;html=1;strokeColor=none;fillColor=#505050;labelPosition=center;verticalLabelPosition=bottom;verticalAlign=top;outlineConnect=0;align=center;shape=mxgraph.office.devices.hard_disk;" vertex="1" parent="1">
          <mxGeometry x="420" y="740" width="30" height="40" as="geometry" />
        </mxCell>
        <mxCell id="2veusgKPtv5v1HkmfJhu-17" value="" style="sketch=0;pointerEvents=1;shadow=0;dashed=0;html=1;strokeColor=none;fillColor=#505050;labelPosition=center;verticalLabelPosition=bottom;verticalAlign=top;outlineConnect=0;align=center;shape=mxgraph.office.devices.hard_disk;" vertex="1" parent="1">
          <mxGeometry x="400" y="750" width="30" height="40" as="geometry" />
        </mxCell>
        <mxCell id="2veusgKPtv5v1HkmfJhu-20" value="" style="edgeStyle=orthogonalEdgeStyle;rounded=0;orthogonalLoop=1;jettySize=auto;html=1;endArrow=none;endFill=0;dashed=1;dashPattern=8 8;strokeWidth=2;" edge="1" parent="1" source="2veusgKPtv5v1HkmfJhu-1" target="2veusgKPtv5v1HkmfJhu-19">
          <mxGeometry relative="1" as="geometry">
            <mxPoint x="585" y="519" as="sourcePoint" />
            <mxPoint x="585" y="630" as="targetPoint" />
          </mxGeometry>
        </mxCell>
        <mxCell id="2veusgKPtv5v1HkmfJhu-40" value="10.20.30.20/24" style="edgeLabel;html=1;align=center;verticalAlign=middle;resizable=0;points=[];" vertex="1" connectable="0" parent="2veusgKPtv5v1HkmfJhu-20">
          <mxGeometry x="-0.4559" relative="1" as="geometry">
            <mxPoint y="-2" as="offset" />
          </mxGeometry>
        </mxCell>
        <mxCell id="2veusgKPtv5v1HkmfJhu-19" value="iscsi disk(s)" style="sketch=0;pointerEvents=1;shadow=0;dashed=0;html=1;strokeColor=none;fillColor=#005F4B;labelPosition=right;verticalLabelPosition=middle;verticalAlign=middle;align=left;outlineConnect=0;shape=mxgraph.veeam2.hdd;" vertex="1" parent="1">
          <mxGeometry x="571" y="550" width="28.000000000000004" height="35" as="geometry" />
        </mxCell>
        <mxCell id="2veusgKPtv5v1HkmfJhu-23" value="" style="verticalLabelPosition=bottom;html=1;verticalAlign=top;align=center;strokeColor=none;fillColor=#00BEF2;shape=mxgraph.azure.virtual_machine;" vertex="1" parent="1">
          <mxGeometry x="370" y="130" width="80" height="70" as="geometry" />
        </mxCell>
        <mxCell id="2veusgKPtv5v1HkmfJhu-27" value="" style="verticalLabelPosition=bottom;html=1;verticalAlign=top;align=center;strokeColor=none;fillColor=#00BEF2;shape=mxgraph.azure.virtual_machine;" vertex="1" parent="1">
          <mxGeometry x="491" y="130" width="80" height="70" as="geometry" />
        </mxCell>
        <mxCell id="2veusgKPtv5v1HkmfJhu-28" value="" style="verticalLabelPosition=bottom;html=1;verticalAlign=top;align=center;strokeColor=none;fillColor=#00BEF2;shape=mxgraph.azure.virtual_machine;" vertex="1" parent="1">
          <mxGeometry x="610" y="130" width="80" height="70" as="geometry" />
        </mxCell>
        <mxCell id="2veusgKPtv5v1HkmfJhu-29" value="" style="verticalLabelPosition=bottom;html=1;verticalAlign=top;align=center;strokeColor=none;fillColor=#00BEF2;shape=mxgraph.azure.virtual_machine;" vertex="1" parent="1">
          <mxGeometry x="730" y="130" width="80" height="70" as="geometry" />
        </mxCell>
        <mxCell id="2veusgKPtv5v1HkmfJhu-30" style="edgeStyle=orthogonalEdgeStyle;rounded=0;orthogonalLoop=1;jettySize=auto;html=1;endArrow=none;endFill=0;dashed=1;dashPattern=8 8;fillColor=#dae8fc;strokeColor=#6c8ebf;entryX=0.5;entryY=1;entryDx=0;entryDy=0;entryPerimeter=0;" edge="1" parent="1" source="2veusgKPtv5v1HkmfJhu-1" target="2veusgKPtv5v1HkmfJhu-23">
          <mxGeometry relative="1" as="geometry">
            <mxPoint x="735" y="390" as="sourcePoint" />
            <mxPoint x="960" y="390" as="targetPoint" />
            <Array as="points">
              <mxPoint x="585" y="300" />
              <mxPoint x="410" y="300" />
            </Array>
          </mxGeometry>
        </mxCell>
        <mxCell id="2veusgKPtv5v1HkmfJhu-45" value="&lt;font color=&quot;#6c8ebf&quot;&gt;10.20.31.11/24&lt;/font&gt;" style="edgeLabel;html=1;align=center;verticalAlign=middle;resizable=0;points=[];" vertex="1" connectable="0" parent="2veusgKPtv5v1HkmfJhu-30">
          <mxGeometry x="0.9309" relative="1" as="geometry">
            <mxPoint y="5" as="offset" />
          </mxGeometry>
        </mxCell>
        <mxCell id="2veusgKPtv5v1HkmfJhu-31" style="edgeStyle=orthogonalEdgeStyle;rounded=0;orthogonalLoop=1;jettySize=auto;html=1;endArrow=none;endFill=0;dashed=1;dashPattern=8 8;fillColor=#dae8fc;strokeColor=#6c8ebf;entryX=0.5;entryY=1;entryDx=0;entryDy=0;entryPerimeter=0;" edge="1" parent="1" source="2veusgKPtv5v1HkmfJhu-1" target="2veusgKPtv5v1HkmfJhu-27">
          <mxGeometry relative="1" as="geometry">
            <mxPoint x="400" y="350" as="sourcePoint" />
            <mxPoint x="420" y="290" as="targetPoint" />
            <Array as="points">
              <mxPoint x="585" y="300" />
              <mxPoint x="530" y="300" />
            </Array>
          </mxGeometry>
        </mxCell>
        <mxCell id="2veusgKPtv5v1HkmfJhu-46" value="&lt;font color=&quot;#6c8ebf&quot;&gt;10.20.31.12/24&lt;/font&gt;" style="edgeLabel;html=1;align=center;verticalAlign=middle;resizable=0;points=[];" vertex="1" connectable="0" parent="2veusgKPtv5v1HkmfJhu-31">
          <mxGeometry x="0.7701" y="-1" relative="1" as="geometry">
            <mxPoint y="-3" as="offset" />
          </mxGeometry>
        </mxCell>
        <mxCell id="2veusgKPtv5v1HkmfJhu-32" style="edgeStyle=orthogonalEdgeStyle;rounded=0;orthogonalLoop=1;jettySize=auto;html=1;endArrow=none;endFill=0;dashed=1;dashPattern=8 8;fillColor=#dae8fc;strokeColor=#6C8EBF;entryX=0.5;entryY=1;entryDx=0;entryDy=0;entryPerimeter=0;" edge="1" parent="1" source="2veusgKPtv5v1HkmfJhu-1" target="2veusgKPtv5v1HkmfJhu-28">
          <mxGeometry relative="1" as="geometry">
            <mxPoint x="595" y="319" as="sourcePoint" />
            <mxPoint x="540" y="290" as="targetPoint" />
            <Array as="points">
              <mxPoint x="585" y="300" />
              <mxPoint x="650" y="300" />
            </Array>
          </mxGeometry>
        </mxCell>
        <mxCell id="2veusgKPtv5v1HkmfJhu-47" value="&lt;font color=&quot;#6c8ebf&quot;&gt;10.20.31.13/24&lt;/font&gt;" style="edgeLabel;html=1;align=center;verticalAlign=middle;resizable=0;points=[];" vertex="1" connectable="0" parent="2veusgKPtv5v1HkmfJhu-32">
          <mxGeometry x="0.8326" relative="1" as="geometry">
            <mxPoint y="-1" as="offset" />
          </mxGeometry>
        </mxCell>
        <mxCell id="2veusgKPtv5v1HkmfJhu-33" style="edgeStyle=orthogonalEdgeStyle;rounded=0;orthogonalLoop=1;jettySize=auto;html=1;endArrow=none;endFill=0;dashed=1;dashPattern=8 8;fillColor=#dae8fc;strokeColor=#6c8ebf;entryX=0.5;entryY=1;entryDx=0;entryDy=0;entryPerimeter=0;" edge="1" parent="1" source="2veusgKPtv5v1HkmfJhu-1" target="2veusgKPtv5v1HkmfJhu-29">
          <mxGeometry relative="1" as="geometry">
            <mxPoint x="595" y="319" as="sourcePoint" />
            <mxPoint x="660" y="290" as="targetPoint" />
            <Array as="points">
              <mxPoint x="585" y="300" />
              <mxPoint x="770" y="300" />
            </Array>
          </mxGeometry>
        </mxCell>
        <mxCell id="2veusgKPtv5v1HkmfJhu-44" value="&lt;font color=&quot;#6c8ebf&quot;&gt;10.20.31.14/24&lt;/font&gt;" style="edgeLabel;html=1;align=center;verticalAlign=middle;resizable=0;points=[];" vertex="1" connectable="0" parent="2veusgKPtv5v1HkmfJhu-33">
          <mxGeometry x="0.9262" relative="1" as="geometry">
            <mxPoint y="2" as="offset" />
          </mxGeometry>
        </mxCell>
        <mxCell id="2veusgKPtv5v1HkmfJhu-42" value="&lt;font color=&quot;#6c8ebf&quot;&gt;10.20.31.10/24&lt;/font&gt;" style="edgeLabel;html=1;align=center;verticalAlign=middle;resizable=0;points=[];" vertex="1" connectable="0" parent="1">
          <mxGeometry x="709.9973563218391" y="370.0014942528736" as="geometry" />
        </mxCell>
        <mxCell id="2veusgKPtv5v1HkmfJhu-54" value="Key" style="shape=table;startSize=30;container=1;collapsible=0;childLayout=tableLayout;fixedRows=1;rowLines=0;fontStyle=0;strokeColor=default;fontSize=12;" vertex="1" parent="1">
          <mxGeometry x="40" y="680" width="180" height="120" as="geometry" />
        </mxCell>
        <mxCell id="2veusgKPtv5v1HkmfJhu-55" value="" style="shape=tableRow;horizontal=0;startSize=0;swimlaneHead=0;swimlaneBody=0;top=0;left=0;bottom=0;right=0;collapsible=0;dropTarget=0;fillColor=none;points=[[0,0.5],[1,0.5]];portConstraint=eastwest;strokeColor=inherit;fontSize=16;" vertex="1" parent="2veusgKPtv5v1HkmfJhu-54">
          <mxGeometry y="30" width="180" height="30" as="geometry" />
        </mxCell>
        <mxCell id="2veusgKPtv5v1HkmfJhu-56" value="" style="shape=partialRectangle;html=1;whiteSpace=wrap;connectable=0;fillColor=none;top=0;left=0;bottom=0;right=0;overflow=hidden;pointerEvents=1;strokeColor=inherit;fontSize=16;" vertex="1" parent="2veusgKPtv5v1HkmfJhu-55">
          <mxGeometry width="40" height="30" as="geometry">
            <mxRectangle width="40" height="30" as="alternateBounds" />
          </mxGeometry>
        </mxCell>
        <mxCell id="2veusgKPtv5v1HkmfJhu-57" value="&lt;font style=&quot;font-size: 10px;&quot; color=&quot;#9673a6&quot;&gt;Management Network (1G)&lt;br&gt;&lt;/font&gt;" style="shape=partialRectangle;html=1;whiteSpace=wrap;connectable=0;fillColor=none;top=0;left=0;bottom=0;right=0;align=left;spacingLeft=6;overflow=hidden;strokeColor=inherit;fontSize=12;" vertex="1" parent="2veusgKPtv5v1HkmfJhu-55">
          <mxGeometry x="40" width="140" height="30" as="geometry">
            <mxRectangle width="140" height="30" as="alternateBounds" />
          </mxGeometry>
        </mxCell>
        <mxCell id="2veusgKPtv5v1HkmfJhu-58" value="" style="shape=tableRow;horizontal=0;startSize=0;swimlaneHead=0;swimlaneBody=0;top=0;left=0;bottom=0;right=0;collapsible=0;dropTarget=0;fillColor=none;points=[[0,0.5],[1,0.5]];portConstraint=eastwest;strokeColor=inherit;fontSize=16;" vertex="1" parent="2veusgKPtv5v1HkmfJhu-54">
          <mxGeometry y="60" width="180" height="30" as="geometry" />
        </mxCell>
        <mxCell id="2veusgKPtv5v1HkmfJhu-59" value="" style="shape=partialRectangle;html=1;whiteSpace=wrap;connectable=0;fillColor=none;top=0;left=0;bottom=0;right=0;overflow=hidden;strokeColor=inherit;fontSize=16;" vertex="1" parent="2veusgKPtv5v1HkmfJhu-58">
          <mxGeometry width="40" height="30" as="geometry">
            <mxRectangle width="40" height="30" as="alternateBounds" />
          </mxGeometry>
        </mxCell>
        <mxCell id="2veusgKPtv5v1HkmfJhu-60" value="&lt;font color=&quot;#6c8ebf&quot; style=&quot;font-size: 10px;&quot;&gt;EKS Network (1G)&lt;br&gt;&lt;/font&gt;" style="shape=partialRectangle;html=1;whiteSpace=wrap;connectable=0;fillColor=none;top=0;left=0;bottom=0;right=0;align=left;spacingLeft=6;overflow=hidden;strokeColor=inherit;fontSize=12;" vertex="1" parent="2veusgKPtv5v1HkmfJhu-58">
          <mxGeometry x="40" width="140" height="30" as="geometry">
            <mxRectangle width="140" height="30" as="alternateBounds" />
          </mxGeometry>
        </mxCell>
        <mxCell id="2veusgKPtv5v1HkmfJhu-61" value="" style="shape=tableRow;horizontal=0;startSize=0;swimlaneHead=0;swimlaneBody=0;top=0;left=0;bottom=0;right=0;collapsible=0;dropTarget=0;fillColor=none;points=[[0,0.5],[1,0.5]];portConstraint=eastwest;strokeColor=inherit;fontSize=16;" vertex="1" parent="2veusgKPtv5v1HkmfJhu-54">
          <mxGeometry y="90" width="180" height="30" as="geometry" />
        </mxCell>
        <mxCell id="2veusgKPtv5v1HkmfJhu-62" value="" style="shape=partialRectangle;html=1;whiteSpace=wrap;connectable=0;fillColor=none;top=0;left=0;bottom=0;right=0;overflow=hidden;strokeColor=inherit;fontSize=16;" vertex="1" parent="2veusgKPtv5v1HkmfJhu-61">
          <mxGeometry width="40" height="30" as="geometry">
            <mxRectangle width="40" height="30" as="alternateBounds" />
          </mxGeometry>
        </mxCell>
        <mxCell id="2veusgKPtv5v1HkmfJhu-63" value="&lt;font style=&quot;font-size: 10px;&quot;&gt;Storage Network (100G)&lt;br&gt;&lt;/font&gt;" style="shape=partialRectangle;html=1;whiteSpace=wrap;connectable=0;fillColor=none;top=0;left=0;bottom=0;right=0;align=left;spacingLeft=6;overflow=hidden;strokeColor=inherit;fontSize=12;fontColor=#000000;" vertex="1" parent="2veusgKPtv5v1HkmfJhu-61">
          <mxGeometry x="40" width="140" height="30" as="geometry">
            <mxRectangle width="140" height="30" as="alternateBounds" />
          </mxGeometry>
        </mxCell>
        <mxCell id="2veusgKPtv5v1HkmfJhu-67" style="edgeStyle=orthogonalEdgeStyle;rounded=0;orthogonalLoop=1;jettySize=auto;html=1;endArrow=none;endFill=0;dashed=1;dashPattern=8 8;fillColor=#e1d5e7;strokeColor=#9673a6;" edge="1" parent="1">
          <mxGeometry relative="1" as="geometry">
            <mxPoint x="70" y="725" as="sourcePoint" />
            <mxPoint x="50" y="725" as="targetPoint" />
            <Array as="points">
              <mxPoint x="70" y="725" />
              <mxPoint x="70" y="725" />
            </Array>
          </mxGeometry>
        </mxCell>
        <mxCell id="2veusgKPtv5v1HkmfJhu-69" style="edgeStyle=orthogonalEdgeStyle;rounded=0;orthogonalLoop=1;jettySize=auto;html=1;endArrow=none;endFill=0;dashed=1;dashPattern=8 8;fillColor=#dae8fc;strokeColor=#6C8EBF;" edge="1" parent="1">
          <mxGeometry relative="1" as="geometry">
            <mxPoint x="70" y="755" as="sourcePoint" />
            <mxPoint x="50" y="755" as="targetPoint" />
            <Array as="points">
              <mxPoint x="70" y="755" />
              <mxPoint x="70" y="755" />
            </Array>
          </mxGeometry>
        </mxCell>
        <mxCell id="2veusgKPtv5v1HkmfJhu-70" style="edgeStyle=orthogonalEdgeStyle;rounded=0;orthogonalLoop=1;jettySize=auto;html=1;endArrow=none;endFill=0;dashed=1;dashPattern=8 8;fillColor=#e1d5e7;strokeColor=#000000;" edge="1" parent="1">
          <mxGeometry relative="1" as="geometry">
            <mxPoint x="70" y="785" as="sourcePoint" />
            <mxPoint x="50" y="785" as="targetPoint" />
            <Array as="points">
              <mxPoint x="70" y="785" />
              <mxPoint x="70" y="785" />
            </Array>
          </mxGeometry>
        </mxCell>
      </root>
    </mxGraphModel>
  </diagram>
</mxfile>
